# xmcd
#
# Track frame offsets:
#	150
#	21526
#	39558
#	56966
#	66070
#	76758
#	92486
#
# Disc length: 1487 seconds
#
# Revision: 0
# Processed by: cddbd v1.5.1PL2 Copyright (c) Steve Scherf et al.
# Submitted via: dBpowerAMP V4.0
#
DISCID=5505cd07
DTITLE=Mike Wells - Bury Your Marriage - Understanding Your Self
DYEAR=1900
DGENRE=ChristianTeaching
TTITLE0=04-01
TTITLE1=04-02
TTITLE2=04-03
TTITLE3=04-04
TTITLE4=04-05
TTITLE5=04-06
TTITLE6=04-07
EXTD=www.abidinglife.com
EXTT0=
EXTT1=
EXTT2=
EXTT3=
EXTT4=
EXTT5=
EXTT6=
PLAYORDER=
